# xmcd
#
# Track frame offsets: 
#        150
#        12416
#        25764
#        38655
#        50611
#        60916
#        74360
#        86608
#        98707
#        111508
#        124402
#        136310
#
# Disc length: 1957 seconds
#
# Revision: 3
# Processed by: cddbd v1.5.2PL0 Copyright (c) Steve Scherf et al.
# Submitted via: ExactAudioCopy v1.1
#
DISCID=a007a30c
DTITLE=Marvin Gaye - How Sweet It Is To Be Loved By You (US 1986)
DYEAR=1965
DGENRE=Rock
TTITLE0=You're A Wonderful One (stereo)
TTITLE1=How Sweet It Is (To Be Loved By You) (stereo)
TTITLE2=Try It Baby (stereo)
TTITLE3=Baby Don't You Do It (stereo)
TTITLE4=Need Your Lovin' (Want You Back) (stereo)
TTITLE5=One Of These Days (stereo)
TTITLE6=No Good Without You (stereo)
TTITLE7=Stepping Closer To Your Heart (stereo)
TTITLE8=Need Somebody (stereo)
TTITLE9=Me And My Lonely Room (stereo)
TTITLE10=Now That You've Won Me (stereo)
TTITLE11=Forever (stereo)
EXTD=Originally Released January 21, 1965\nCD Edition Released March 9
EXTD=, 1992\n\nAMG EXPERT REVIEW: Another great album - Gaye was at thi
EXTD=s time Motown's finest solo vocalist (Smokey Robinson, Eddie Kend
EXTD=ricks, David Ruffin, and Levi Stubbs were all heading groups). Hi
EXTD=s vocal on the title track was both smooth and churning, celebrat
EXTD=ory and introspective. He could do no wrong during this period, r
EXTD=egardless of content, tempo, or arrangement. -- Ron Wynn\n\n
EXTT0=
EXTT1=
EXTT2=
EXTT3=
EXTT4=
EXTT5=
EXTT6=
EXTT7=
EXTT8=
EXTT9=
EXTT10=
EXTT11=
PLAYORDER=
